<?xml version="1.0" standalone="no"?>
<!DOCTYPE svg PUBLIC "-//W3C//DTD SVG 20010904//EN"
 "http://www.w3.org/TR/2001/REC-SVG-20010904/DTD/svg10.dtd">
<svg version="1.0" xmlns="http://www.w3.org/2000/svg"
 width="477.000000pt" height="319.000000pt" viewBox="0 0 477.000000 319.000000"
 preserveAspectRatio="xMidYMid meet">
<metadata>
Created by potrace 1.16, written by Peter Selinger 2001-2019
</metadata>
<g transform="translate(0.000000,319.000000) scale(0.100000,-0.100000)"
fill="#0d3934" stroke="none">
<path d="M2024 2845 c-50 -48 -45 -62 24 -70 85 -9 96 -15 20 -10 l-67 4 10
-26 c13 -36 38 -52 77 -53 54 0 110 71 65 83 -14 4 -12 5 5 6 30 1 29 32 -4
65 -15 14 -29 26 -33 27 -49 8 -65 4 -97 -26z"/>
<path d="M2494 2842 c-20 -15 -44 -52 -44 -66 0 -3 11 -6 24 -6 14 0 27 -4 30
-9 4 -5 -3 -7 -14 -4 -15 4 -20 0 -20 -16 0 -58 95 -84 138 -38 29 30 30 61 2
54 -11 -3 -18 -1 -14 4 3 5 16 9 29 9 22 0 23 2 13 30 -18 54 -100 78 -144 42z"/>
<path d="M2195 2829 c-4 -5 -4 -21 -1 -35 4 -14 2 -24 -5 -24 -6 0 -9 -8 -7
-17 2 -13 17 -20 48 -25 44 -6 44 -6 -10 -5 -49 2 -55 0 -58 -20 -7 -49 87
-72 125 -30 32 35 35 55 10 60 -18 4 -17 5 6 6 37 2 35 25 -7 67 -34 34 -87
47 -101 23z"/>
<path d="M2027 2610 c-39 -31 -86 -136 -103 -231 -11 -61 -14 -118 -10 -211 6
-122 21 -262 33 -302 5 -17 6 -18 15 -3 5 9 25 78 44 153 43 168 64 213 90
196 19 -12 32 -46 59 -153 14 -57 33 -125 41 -151 16 -48 34 -64 34 -30 0 9 7
78 15 152 32 295 5 472 -87 568 -38 39 -91 44 -131 12z"/>
<path d="M2499 2603 c-32 -20 -76 -85 -91 -136 -9 -29 -9 -60 0 -126 7 -49 11
-124 10 -167 -1 -76 -1 -75 -8 31 -15 239 -85 390 -180 387 -18 0 -34 -3 -37
-5 -2 -3 7 -28 21 -56 41 -79 58 -172 58 -301 0 -100 5 -132 34 -244 19 -70
39 -137 45 -149 10 -18 13 -18 20 -4 8 14 20 88 33 207 2 19 2 -10 0 -65 -2
-55 1 -109 5 -120 8 -19 10 -18 20 8 6 16 24 81 40 145 34 140 55 192 75 192
26 0 43 -39 84 -193 38 -142 46 -166 57 -155 10 9 36 295 36 388 -1 253 -111
432 -222 363z"/>
<path d="M2658 2574 c-4 -3 5 -27 18 -52 41 -81 56 -157 58 -302 2 -117 7
-151 35 -255 50 -181 61 -192 80 -75 21 127 25 348 8 438 -30 156 -91 252
-161 252 -18 0 -35 -3 -38 -6z"/>
<path d="M2064 2173 c-4 -15 -2 -87 4 -160 19 -211 29 -234 57 -140 28 90 29
153 3 242 -25 87 -51 111 -64 58z"/>
<path d="M2528 2165 c-19 -41 14 -359 36 -352 6 2 21 43 32 90 22 87 22 88 3
165 -31 126 -47 148 -71 97z"/>
<path d="M790 1150 l0 -450 115 0 115 0 2 294 3 295 171 -292 171 -292 142 -3
141 -3 0 451 0 450 -120 0 -120 0 0 -287 0 -288 -172 288 -173 287 -137 0
-138 0 0 -450z"/>
<path d="M1820 1150 l0 -450 270 0 270 0 0 105 0 105 -155 0 -155 0 0 70 0 70
140 0 140 0 0 100 0 100 -140 0 -140 0 0 75 0 75 155 0 155 0 0 100 0 100
-270 0 -270 0 0 -450z"/>
<path d="M2510 1150 l0 -450 275 0 275 0 0 105 0 105 -160 0 -160 0 0 70 0 70
140 0 140 0 0 100 0 100 -140 0 -140 0 0 75 0 75 160 0 160 0 0 100 0 100
-275 0 -275 0 0 -450z"/>
<path d="M3200 1150 l0 -452 228 4 c201 4 235 7 292 27 78 27 149 76 189 132
62 84 91 242 72 381 -22 155 -94 258 -225 320 l-71 33 -242 3 -243 4 0 -452z
m415 239 c83 -23 126 -103 127 -233 0 -180 -60 -246 -226 -246 l-86 0 0 245 0
245 73 0 c39 0 90 -5 112 -11z"/>
<path d="M1270 500 l0 -100 55 0 c42 0 60 5 75 20 23 23 26 53 6 69 -10 8 -13
23 -9 47 8 49 -9 64 -73 64 l-54 0 0 -100z"/>
<path d="M1490 500 l0 -100 60 0 c53 0 60 2 60 20 0 17 -7 20 -41 20 -36 0
-40 2 -37 23 2 17 11 23 36 25 46 5 43 32 -4 32 -31 0 -35 3 -32 23 2 18 10
23 41 25 24 2 37 8 37 18 0 11 -14 14 -60 14 l-60 0 0 -100z"/>
<path d="M1800 500 c0 -93 1 -100 20 -100 16 0 20 7 20 34 0 31 3 34 39 40 48
7 71 28 71 65 0 43 -28 61 -93 61 l-57 0 0 -100z"/>
<path d="M2020 500 c0 -93 1 -100 20 -100 17 0 20 7 20 45 0 25 4 45 10 45 5
0 21 -20 36 -45 19 -34 32 -45 50 -45 l25 0 -32 46 -31 46 21 14 c23 16 27 44
11 75 -9 15 -22 19 -70 19 l-60 0 0 -100z"/>
<path d="M2250 500 l0 -100 61 0 c52 0 60 2 57 18 -2 12 -14 18 -41 20 -32 3
-37 7 -37 28 0 21 5 24 35 24 24 0 35 5 35 15 0 10 -11 15 -35 15 -31 0 -35 3
-35 25 0 23 4 25 40 25 29 0 40 4 40 15 0 12 -13 15 -60 15 l-60 0 0 -100z"/>
<path d="M2450 500 c0 -93 1 -100 20 -100 16 0 20 7 20 34 0 31 3 34 38 41 51
9 62 21 62 64 0 50 -14 61 -82 61 l-58 0 0 -100z"/>
<path d="M2713 583 c-3 -10 -19 -52 -35 -93 -15 -41 -28 -78 -28 -82 0 -17 39
-7 45 12 5 16 15 20 52 20 36 0 46 -4 50 -20 3 -13 14 -20 28 -20 22 0 22 0
-14 100 -34 94 -38 100 -64 100 -17 0 -30 -7 -34 -17z"/>
<path d="M2920 500 c0 -93 1 -100 20 -100 17 0 20 7 20 46 0 52 11 51 40 -7
16 -30 26 -39 46 -39 25 0 26 1 12 23 -44 66 -44 67 -25 78 20 12 23 69 5 87
-7 7 -36 12 -65 12 l-53 0 0 -100z"/>
<path d="M3140 500 l0 -100 61 0 c52 0 60 2 57 18 -2 12 -14 18 -41 20 -33 3
-38 6 -35 25 2 17 11 23 36 25 46 5 43 32 -3 32 -31 0 -35 3 -35 25 0 23 4 25
40 25 29 0 40 4 40 15 0 12 -13 15 -60 15 l-60 0 0 -100z"/>
<path d="M3340 499 l0 -101 60 4 c69 5 97 24 106 74 8 43 -1 79 -26 104 -16
16 -34 20 -80 20 l-60 0 0 -101z"/>
</g>
</svg>
